<svg width="230" height="240" viewBox="0 0 230 240" fill="none" xmlns="http://www.w3.org/2000/svg">
<path d="M228.681 150.573C229.496 147.718 229.7 144.862 229.496 142.415C229.496 142.211 229.496 142.007 229.496 141.599L229.292 141.803C229.088 139.559 228.477 137.316 227.05 135.684C227.05 135.684 216.248 155.876 202.797 172.193C194.645 181.982 184.251 189.937 174.265 195.851C164.482 201.766 153.069 204.825 140.637 204.825C126.574 204.825 114.142 201.766 103.748 195.851C93.5578 190.141 86.2209 182.594 81.5333 173.416C76.8458 164.034 76.2344 155.876 79.9029 148.534C84.3866 140.375 93.354 133.849 106.805 128.75C114.55 125.69 123.721 123.243 134.115 121.203C144.509 119.164 154.292 116.308 163.871 112.637C173.449 108.762 181.398 103.459 188.123 96.5247C194.849 89.5902 198.721 79.5964 199.536 66.3392C199.536 56.3453 197.295 47.5752 192.811 40.0288C188.327 32.2785 182.417 25.7519 175.284 20.449C168.15 15.1462 159.998 10.8631 151.235 7.59979C142.471 4.33649 133.707 2.29692 124.944 1.4811C100.895 -0.558467 80.1067 2.90879 62.7833 11.8829C45.2561 21.0609 31.6011 33.2983 21.4109 48.595C11.2206 63.8917 4.69888 81.228 1.84561 100.4C-1.21146 119.776 -0.192442 138.54 4.49507 156.488C9.18259 174.436 17.7424 190.753 30.3783 204.825C43.0142 219.102 59.7262 229.096 80.3105 234.807C85.4056 236.643 90.7046 237.866 96.2073 238.682C101.71 239.498 107.213 239.906 112.715 239.906C125.555 239.906 138.395 237.662 151.235 232.768C165.093 227.669 215.026 202.582 228.681 150.573ZM66.4518 133.849C64.4137 124.263 62.9871 113.453 62.5795 101.624C62.1719 89.7942 63.3947 78.1687 66.0442 66.9511C68.8974 55.5295 73.1773 45.5357 79.0877 36.5616C84.998 27.5875 93.5578 21.0609 104.359 17.1857C109.862 15.3501 114.957 14.3303 120.052 14.3303C128.001 14.3303 134.93 16.5739 141.044 20.8569C147.159 25.344 151.235 32.0745 153.069 41.4565C154.088 51.4504 153.273 59.8126 150.827 66.9511C148.381 74.0895 144.917 80.0043 140.433 85.1032C135.745 90.2021 130.447 94.6891 124.332 98.5643C118.218 102.439 111.9 106.315 105.786 110.19C99.672 113.861 93.5578 117.736 87.8513 121.611C81.941 125.487 77.0496 130.178 73.1773 135.48C69.9165 139.763 67.6746 139.152 66.4518 133.849Z" fill="white"/>
</svg>
