<svg width="65" height="65" viewBox="0 0 65 65" fill="none" xmlns="http://www.w3.org/2000/svg">
<g clip-path="url(#clip0_1670_5826)">
<path d="M58.6713 20.0376L58.6713 20.0374C55.5411 11.3396 47.5623 5.14267 38.438 4.32135C37.1859 4.20639 35.3772 4.17958 34.5662 4.27114L34.5656 4.27121C32.5827 4.50001 31.7059 4.64116 30.6486 4.91186C26.364 5.9767 22.7061 8.05625 19.5643 11.1852L19.5637 11.1859C15.754 15.0084 13.5851 19.387 12.765 24.9726C12.494 26.7289 12.5586 29.9804 12.8931 31.8457C14.9324 43.3117 24.7582 51.6659 36.2317 51.6787M58.6713 20.0376L54.6599 50.8779C52.5657 50.1544 51.0451 49.6444 49.9981 49.3154C49.4743 49.1509 49.0718 49.0325 48.7765 48.9554C48.4704 48.8756 48.306 48.8477 48.2417 48.8477C47.8738 48.8477 47.39 48.9986 46.2264 49.5356L46.225 49.5363C42.8663 51.0618 39.949 51.6915 36.2317 51.6787M58.6713 20.0376C59.7361 23.0008 60.1088 25.3808 60.0063 28.6865L60.0063 28.6868M58.6713 20.0376L60.0063 28.6868M36.2317 51.6787C36.2317 51.6787 36.2317 51.6787 36.2317 51.6787L36.232 51.4287L36.2311 51.6787C36.2313 51.6787 36.2315 51.6787 36.2317 51.6787ZM60.0063 28.6868C59.8909 32.2487 59.2868 34.8334 57.8252 38.0003L57.8243 38.0022M60.0063 28.6868L57.8243 38.0022M57.8243 38.0022C57.2917 39.1307 57.2022 39.477 57.2133 39.9205L57.2134 39.9205M57.8243 38.0022L57.2134 39.9205M57.2134 39.9205V39.9268M57.2134 39.9205V39.9268M57.2134 39.9268C57.2134 40.0098 57.2398 40.1785 57.3147 40.4747C57.3877 40.7636 57.5015 41.1539 57.6637 41.6687C57.9878 42.6979 58.5008 44.2119 59.2562 46.3827L59.2562 46.3828M57.2134 39.9268L59.2562 46.3828M59.2562 46.3828C59.8215 48.0089 60.3267 49.5053 60.6859 50.6053M59.2562 46.3828L60.6859 50.6053M6.24787 50.7733C6.47127 51.2577 6.60502 51.7377 6.60502 52C6.60502 52.0501 6.58341 52.1835 6.5238 52.4221C6.46676 52.6504 6.38125 52.9518 6.26835 53.322C6.04271 54.0621 5.71057 55.0681 5.28571 56.2983L5.28541 56.2992C4.92352 57.3594 4.59642 58.3249 4.36131 59.0286C4.2438 59.3803 4.14903 59.6674 4.08432 59.8685C4.05205 59.9688 4.0268 60.0492 4.00986 60.1059C4.00152 60.1338 3.99442 60.1586 3.98942 60.1781C3.98708 60.1872 3.98408 60.1995 3.98176 60.2121C3.98072 60.2178 3.97868 60.2295 3.97762 60.2437C3.9771 60.2507 3.97637 60.2638 3.97743 60.2801L3.97743 60.2801C3.97811 60.2905 3.98076 60.331 4.00348 60.3765L4.04075 60.451L4.11529 60.4883C4.16073 60.511 4.20128 60.5137 4.21168 60.5143L4.21171 60.5143C4.22799 60.5154 4.2411 60.5147 4.24805 60.5142C4.26231 60.5131 4.27402 60.5111 4.27971 60.51C4.2923 60.5077 4.30458 60.5047 4.3137 60.5023C4.3332 60.4974 4.35796 60.4903 4.38589 60.4819C4.44261 60.465 4.52293 60.4397 4.62323 60.4075C4.82433 60.3427 5.11143 60.248 5.46317 60.1305C6.16691 59.8954 7.13234 59.5682 8.19261 59.2064L8.19327 59.2061C9.33431 58.8131 10.344 58.4808 11.1037 58.247C11.4839 58.1301 11.7995 58.0384 12.0368 57.9762C12.1556 57.945 12.2526 57.9219 12.327 57.9067C12.3642 57.8991 12.394 57.8939 12.417 57.8906C12.4284 57.889 12.4373 57.888 12.444 57.8874C12.4509 57.8868 12.4538 57.8868 12.4537 57.8868C12.5523 57.8868 12.7556 57.9268 13.0368 58.0137C13.309 58.0978 13.63 58.218 13.9521 58.3605L13.9537 58.3612C16.5855 59.5038 18.1808 59.8545 20.9468 59.8545C23.8687 59.8545 26.004 59.3243 28.529 57.9718C29.119 57.6605 29.8486 57.1973 30.4903 56.7445C31.1251 56.2964 31.6993 55.8408 31.9625 55.5434M6.24787 50.7733L31.7759 55.377M6.24787 50.7733C5.68141 49.5885 5.10371 47.8945 4.85823 46.7059L4.85792 46.7043C4.70699 45.9497 4.63407 44.7461 4.63566 43.5621C4.63725 42.3788 4.7133 41.1831 4.87131 40.4457L4.87157 40.4445C5.42507 37.9216 6.54513 35.4994 8.09387 33.5505L8.09416 33.5502L8.99553 32.4203L9.32755 32.0041L9.43574 32.5254L9.71504 33.8711L9.71524 33.8721C9.86494 34.6081 10.2299 35.9053 10.5196 36.7617C12.1671 41.6034 15.3251 46.0828 19.3755 49.3031C22.7987 52.0089 27.2543 54.0589 31.1827 54.7369L6.24787 50.7733ZM31.9625 55.5434C31.9627 55.5431 31.963 55.5428 31.9632 55.5425L31.7759 55.377M31.9625 55.5434C31.9622 55.5437 31.962 55.544 31.9617 55.5442L31.7759 55.377M31.9625 55.5434C31.9901 55.5127 32.0191 55.4804 32.0436 55.4501C32.0669 55.4213 32.0974 55.3808 32.1194 55.3336C32.1419 55.2853 32.1685 55.2016 32.1389 55.1047C32.1094 55.0083 32.0409 54.9528 31.9931 54.9237C31.9091 54.8727 31.791 54.8453 31.6807 54.8231C31.5622 54.7992 31.4038 54.7732 31.2039 54.7404L31.1837 54.7371L31.1412 54.9834L31.1591 54.9864C31.9919 55.1231 32.0028 55.1249 31.7759 55.377M60.6859 50.6053C60.8655 51.155 61.009 51.607 61.1054 51.9271M60.6859 50.6053L61.1054 51.9271M61.1054 51.9271C61.1535 52.0868 61.1906 52.216 61.2147 52.3091M61.1054 51.9271L61.2147 52.3091M61.2147 52.3091C61.2266 52.355 61.2364 52.3962 61.2427 52.4295M61.2147 52.3091L61.2427 52.4295M61.2427 52.4295C61.2457 52.4455 61.249 52.4655 61.2506 52.4858M61.2427 52.4295L61.2506 52.4858M61.2506 52.4858C61.2514 52.4957 61.2523 52.5114 61.2512 52.5297M61.2506 52.4858L61.2512 52.5297M61.2512 52.5297C61.2507 52.5384 61.2491 52.5643 61.2388 52.5964M61.2512 52.5297L61.2388 52.5964M61.2388 52.5964C61.2101 52.6908 61.1525 52.7697 61.0878 52.8256C61.024 52.8806 60.927 52.9356 60.8101 52.9356C60.7746 52.9356 60.7414 52.9271 60.7382 52.9263L60.738 52.9263C60.7256 52.9234 60.7119 52.9197 60.698 52.9158C60.6699 52.908 60.6326 52.8968 60.5877 52.883C60.4975 52.8552 60.3704 52.8146 60.2112 52.7628C59.8925 52.6591 59.4414 52.5093 58.8912 52.3243C57.7906 51.9543 56.2919 51.443 54.66 50.8779C54.66 50.8779 54.6601 50.8779 54.6601 50.8779L61.2388 52.5964ZM32.9133 0.895321L32.9123 0.895454C26.1556 1.76363 19.8021 5.19931 15.5272 10.3041L15.3355 10.1436L15.5272 10.3041C11.7011 14.8727 9.55096 20.1674 9.14838 26.0425L9.1483 26.0437L9.03404 27.6052L9.02579 27.7179L8.93567 27.7862L8.51739 28.1031C8.51721 28.1032 8.51703 28.1034 8.51685 28.1035C6.57028 29.5886 4.41045 32.2737 3.20702 34.7056L3.20699 34.7057C1.93801 37.2688 1.36318 39.2949 1.1374 41.9783C0.899187 45.014 1.42748 48.4895 2.52748 51.077L2.52781 51.0778C2.63042 51.3215 2.72406 51.5571 2.79249 51.7445C2.82659 51.8378 2.85534 51.9217 2.87591 51.9898C2.88616 52.0237 2.89518 52.0563 2.90186 52.0857C2.90745 52.1103 2.91557 52.1498 2.91557 52.1905C2.91557 52.2184 2.91089 52.2428 2.90941 52.2505L2.90932 52.2509C2.907 52.2631 2.90411 52.2755 2.90125 52.2871C2.89547 52.3105 2.88754 52.3393 2.87814 52.3719C2.85919 52.4376 2.83179 52.527 2.79727 52.6364C2.72809 52.8557 2.62847 53.1614 2.50616 53.5307C2.26144 54.2696 1.92475 55.267 1.55647 56.3464L1.55626 56.347C0.881455 58.3078 0.54934 59.2765 0.390506 59.8807C0.238378 60.4594 0.249797 60.6821 0.27433 61.1604L0.274538 61.1644C0.311255 61.7436 0.423136 62.2022 0.618699 62.5833C0.813395 62.9626 1.09826 63.2793 1.50212 63.5643L1.50213 63.5643L1.5042 63.5658C1.881 63.8376 2.16469 63.9958 2.45975 64.0908C2.75544 64.1861 3.07923 64.2233 3.54488 64.2295L3.54601 64.2296C4.20229 64.2413 4.69818 64.1099 7.65 63.1004C8.63029 62.7647 9.59207 62.4364 10.3297 62.1845C10.9878 61.9599 11.4674 61.7961 11.6229 61.7423L11.6241 61.7419C11.9155 61.6427 12.1251 61.5727 12.3932 61.6086C12.625 61.6396 12.8969 61.7506 13.3297 61.9272C13.3481 61.9348 13.3669 61.9424 13.386 61.9502L13.3865 61.9504C17.6601 63.705 22.7779 63.8806 27.1642 62.4144C28.6154 61.9265 30.6139 60.9462 31.9796 60.0316L31.9805 60.031C33.3182 59.1433 35.2788 57.3582 36.2264 56.1613L36.2266 56.161L36.8613 55.3612L36.9276 55.2777L37.0338 55.2677L38.6582 55.1154C38.6583 55.1154 38.6584 55.1154 38.6585 55.1154C41.6687 54.8257 44.8034 54.0319 47.3027 52.9267L48.3055 52.4824L48.3954 52.4426L48.4884 52.4747L51.6113 53.5537L51.6115 53.5538L52.0579 53.7078C55.976 55.0591 57.9302 55.7331 59.0163 56.0697C59.5798 56.2444 59.8982 56.3245 60.1303 56.3623C60.3428 56.3968 60.4863 56.3967 60.7011 56.3965C60.7159 56.3965 60.7311 56.3965 60.7466 56.3965C61.9261 56.3965 62.7907 56.0406 63.6072 55.2606C64.0637 54.816 64.3555 54.3963 64.5264 53.924C64.6982 53.4496 64.7551 52.9027 64.7119 52.193L64.7118 52.1906C64.6633 51.2455 64.5038 50.7314 62.7449 45.6329C62.7448 45.6327 62.7447 45.6325 62.7447 45.6323L60.8152 40.0851L60.7801 39.9841L60.8288 39.889L61.0954 39.3685L61.0955 39.3682C61.5537 38.4766 62.2083 36.6298 62.5998 35.1777C65.1669 25.5254 62.5625 15.69 55.5552 8.68267L55.5549 8.6824C51.3026 4.41746 45.8185 1.70096 39.9204 0.946312C39.1295 0.846668 37.7325 0.786385 36.3474 0.775291C34.9605 0.764183 33.6114 0.802647 32.9133 0.895321ZM64.9615 52.1778C64.9107 51.1875 64.7329 50.6289 62.981 45.5508L64.9615 52.1778Z" fill="#FD9900" stroke="#FFFAF2" stroke-width="0.5"/>
<path d="M23.9466 18.133L23.9467 18.133L23.9447 18.134C22.828 18.7253 22.7838 20.4372 23.8945 21.1147L23.8945 21.1147L23.8968 21.1161C23.9416 21.1441 23.9716 21.161 24.0148 21.1763C24.061 21.1927 24.1313 21.2104 24.2541 21.2267C24.5036 21.2599 24.9316 21.2829 25.7381 21.2972C27.3456 21.3257 30.4079 21.3193 36.4337 21.3066L36.5283 21.3063C42.4787 21.2875 45.5141 21.2779 47.1053 21.2416C47.9082 21.2234 48.3305 21.1984 48.5713 21.1645C48.6901 21.1477 48.7532 21.1303 48.7907 21.1156C48.8235 21.1028 48.8441 21.0897 48.8786 21.0642C49.8034 20.3699 49.7931 18.9077 48.8149 18.1768L48.8145 18.1766C48.7708 18.1438 48.7516 18.1304 48.7221 18.1175C48.6904 18.1037 48.6358 18.0861 48.5269 18.069C48.3039 18.0341 47.9045 18.0083 47.1194 17.9901C45.5566 17.9536 42.5231 17.9473 36.4591 17.9346C30.4841 17.9219 27.4472 17.9156 25.8444 17.9441C25.0407 17.9584 24.6092 17.9813 24.3518 18.0146C24.1105 18.0458 24.0383 18.0835 23.9466 18.133Z" fill="#FD9900" stroke="#FFFAF2" stroke-width="0.5"/>
<path d="M23.8985 26.1106L23.8985 26.1106L23.8968 26.1116C22.7762 26.7995 22.8404 28.558 23.9788 29.1405C24.0452 29.1724 24.1413 29.2068 24.4359 29.2345C24.7367 29.2629 25.2226 29.2826 26.0597 29.2953C27.7311 29.3207 30.772 29.3175 36.4608 29.3048L36.4623 29.3048C42.5251 29.2858 45.5582 29.2763 47.1209 29.2383C47.906 29.2192 48.3053 29.193 48.5284 29.1579C48.6374 29.1407 48.692 29.1231 48.7237 29.1092C48.7533 29.0963 48.7725 29.0829 48.8162 29.0501C49.3093 28.6803 49.5654 28.1603 49.5541 27.5153C49.5483 27.1953 49.4908 26.9577 49.3719 26.7522C49.2516 26.5443 49.0561 26.3477 48.7378 26.1314C48.7375 26.1312 48.7372 26.131 48.7369 26.1308L48.3827 25.8947H36.3217C30.3784 25.8947 27.3446 25.8947 25.7451 25.9264C24.9426 25.9423 24.5132 25.966 24.2612 25.9996C24.1371 26.0162 24.0651 26.034 24.0174 26.0507C23.9729 26.0663 23.942 26.0834 23.8985 26.1106Z" fill="#FD9900" stroke="#FFFAF2" stroke-width="0.5"/>
<path d="M24.3668 33.8799C24.3367 33.8827 24.3239 33.8848 24.3219 33.885L24.3146 33.8866C24.2425 33.9026 24.1128 33.9606 23.961 34.0569C23.8137 34.1502 23.669 34.2646 23.5656 34.3734L23.5658 34.3735L23.5583 34.3808C23.3652 34.5676 23.2831 34.6713 23.2341 34.7882C23.1826 34.911 23.158 35.0715 23.1388 35.3965L23.1389 35.3965L23.1387 35.3985C23.1088 35.8475 23.1648 36.175 23.2969 36.4301C23.4277 36.6826 23.6474 36.8917 23.9972 37.0782L23.9974 37.0784L24.4875 37.3405L32.054 37.3027L32.0553 37.5527L32.0541 37.3027L39.6121 37.2651L39.9895 36.9739L39.9901 36.9735C41.0018 36.1979 40.9038 34.6058 39.8446 34.027L39.8443 34.0268C39.709 33.9526 39.5306 33.8928 38.4665 33.8591C37.4188 33.8259 35.5603 33.8164 32.1179 33.8037C30.0748 33.7974 28.1718 33.8037 26.7499 33.8196C26.0387 33.8275 25.4489 33.8378 25.0223 33.85C24.8089 33.8562 24.6378 33.8627 24.5135 33.8696C24.4512 33.8731 24.4024 33.8765 24.3668 33.8799Z" fill="#FD9900" stroke="#FFFAF2" stroke-width="0.5"/>
</g>
<defs>
<clipPath id="clip0_1670_5826">
<rect width="65" height="65" fill="white"/>
</clipPath>
</defs>
</svg>
