<svg version="1.1" id="Layer_1" xmlns="http://www.w3.org/2000/svg" xmlns:xlink="http://www.w3.org/1999/xlink" x="0px" y="0px"
	 width="100%" viewBox="0 0 189 113" enable-background="new 0 0 189 113" xml:space="preserve">
<path fill="#FAF1E2" opacity="1.000000" stroke="none" 
	d="
M129.000000,114.000000 
	C87.166679,114.000000 45.833241,113.959915 4.500288,114.083733 
	C1.517041,114.092667 0.905234,113.483543 0.915815,110.499741 
	C1.045241,74.000206 1.000000,37.500061 1.000000,1.000036 
	C62.666626,1.000000 124.333328,1.036219 185.999664,0.903191 
	C189.424210,0.895803 190.114822,1.573460 190.099060,5.000326 
	C189.937454,40.166241 189.953140,75.333359 190.084290,110.499527 
	C190.095413,113.482872 189.486877,114.113884 186.499390,114.086990 
	C167.500870,113.915947 148.500061,114.000000 129.000000,114.000000 
z"/>
<path fill="#EEAE62" opacity="1.000000" stroke="none" 
	d="
M98.303513,86.773933 
	C98.073044,87.024956 97.905106,87.372726 97.855713,87.559402 
	C97.129272,88.751503 97.122810,89.920151 96.926170,91.061623 
	C96.420959,93.994156 94.943321,95.586235 91.369591,94.251846 
	C90.731842,93.835999 90.460007,93.625092 90.014084,93.223145 
	C88.464729,90.159943 88.494377,86.569763 85.234680,84.293037 
	C84.536728,83.748459 84.097984,83.439049 83.422668,83.002502 
	C82.497658,82.525742 81.989471,81.949348 81.185547,81.287292 
	C80.961601,81.111298 80.588112,80.938530 80.387466,80.892982 
	C77.005707,79.544228 73.952744,78.030174 71.217575,75.340584 
	C70.239151,74.735855 69.525589,74.347923 68.514145,73.891754 
	C66.775764,73.378464 65.548180,72.580063 64.199577,71.371765 
	C63.589951,71.067436 63.236343,70.948936 62.606392,70.785873 
	C59.350323,69.469810 56.668453,67.573807 53.063911,67.894211 
	C50.729710,68.101707 48.936310,68.689896 47.301094,70.775345 
	C47.065628,71.040787 47.010597,70.995216 47.027618,71.026505 
	C42.831242,78.003029 41.931744,85.399681 44.060074,93.589127 
	C43.989063,95.318237 44.484810,96.870773 42.479912,97.769241 
	C41.974815,97.766960 41.798050,97.663750 41.321205,97.495567 
	C27.761656,94.142349 19.744543,79.251701 24.765612,66.056885 
	C26.453093,61.622368 25.172604,60.017136 21.738619,57.812035 
	C10.792793,50.783272 4.068933,40.956749 2.936582,27.676548 
	C2.620126,23.965151 4.094220,21.665691 7.459717,20.286306 
	C19.815502,15.222157 31.888910,15.969002 43.431877,22.486015 
	C46.644127,24.299612 48.028973,24.308960 50.551533,21.205395 
	C59.340153,10.392533 75.417038,8.797816 84.795006,17.343174 
	C85.975319,18.418688 87.777840,19.348003 87.463058,21.279831 
	C87.109131,23.451941 84.876968,23.148600 83.418312,23.538719 
	C75.382805,25.687836 69.411499,30.126652 66.111458,37.977528 
	C64.502670,41.804871 65.416672,44.829807 68.464188,47.260902 
	C75.526176,52.894485 83.833839,56.510979 91.457176,61.240948 
	C92.349709,61.794731 93.311699,61.947102 94.287529,61.360390 
	C102.109154,56.657700 110.602394,53.078648 117.659790,47.090271 
	C121.361969,43.948883 121.532799,40.697315 119.383965,36.512165 
	C115.770676,29.474792 109.989738,25.527674 102.642845,23.382116 
	C101.312363,22.993568 99.384506,23.342894 99.029457,21.340536 
	C98.682213,19.382225 100.126625,18.351198 101.462952,17.318762 
	C112.168884,9.047455 125.871468,10.134677 134.953796,20.666203 
	C138.049240,24.255577 139.907654,24.139565 143.748245,22.017794 
	C155.011078,15.795535 166.827393,15.178590 178.749817,20.400908 
	C182.546524,22.063955 184.011612,24.576107 183.339157,29.112757 
	C182.456268,35.069084 180.049667,40.213497 177.112320,45.645622 
	C176.166077,47.187096 175.628647,48.598724 174.214554,49.771126 
	C172.429749,51.473778 170.869171,52.954315 169.153488,54.718445 
	C168.443283,55.552147 167.880020,56.093388 167.001343,56.695751 
	C166.729080,56.803825 166.361252,56.895069 166.191422,56.979118 
	C164.022842,59.624081 159.232864,60.729889 161.720871,65.873718 
	C161.926056,66.875130 162.001358,67.564903 162.134674,68.596718 
	C162.490906,69.415245 162.834473,69.868744 162.971802,70.718475 
	C163.006485,72.718811 163.021149,74.437569 163.048050,76.585739 
	C162.868469,78.486641 163.296555,80.050613 162.108322,81.651749 
	C161.744492,82.255035 161.675873,82.624069 161.599213,83.274788 
	C160.849762,85.392082 159.798965,87.034927 158.277771,88.769501 
	C156.763672,90.410927 155.469345,91.804451 153.988708,93.454643 
	C152.505875,96.151611 149.715240,95.820869 147.380859,97.049492 
	C146.567886,97.169823 146.104691,97.225723 145.304413,97.377335 
	C144.967331,97.473045 144.506241,97.384514 144.280518,97.448967 
	C142.708023,97.089142 141.848389,96.300041 141.994751,94.377991 
	C143.147537,87.755943 143.555679,81.666382 141.101624,75.476189 
	C138.176056,68.096573 134.144775,66.055359 126.819672,69.090553 
	C124.807213,69.924416 123.089539,71.218575 120.940460,72.524330 
	C119.581779,73.012802 118.581161,73.381950 117.305229,73.919128 
	C116.431770,74.579079 115.866852,75.110123 114.987587,75.693008 
	C113.993668,76.126953 113.271629,76.459061 112.296844,76.954239 
	C111.285469,77.795738 110.351562,78.173210 109.213882,78.795044 
	C108.968292,78.967598 109.000793,78.996605 108.985123,78.979294 
	C105.312111,81.235451 101.947151,83.912445 98.303513,86.773933 
z"/>
<path fill="#FBE3BD" opacity="1.000000" stroke="none" 
	d="
M120.978409,72.740265 
	C130.523605,63.472790 139.712631,65.252754 142.673080,76.488861 
	C144.187943,82.238350 145.036423,87.840591 142.288940,93.748741 
	C140.775009,92.991264 140.742569,91.524078 141.188522,90.342789 
	C143.176971,85.075317 141.369370,80.271278 139.687164,75.412338 
	C137.382812,68.756401 132.839920,67.029404 126.470978,70.191605 
	C124.754120,71.044037 123.744011,73.280991 120.978409,72.740265 
z"/>
<path fill="#FBE3BD" opacity="1.000000" stroke="none" 
	d="
M44.345692,93.698265 
	C40.211758,85.949776 41.381958,78.440384 46.722588,71.190483 
	C47.711872,73.907494 45.600845,75.995155 44.866280,78.440109 
	C43.348915,83.490540 44.498989,88.433998 44.345692,93.698265 
z"/>
<path fill="#FBE3BD" opacity="1.000000" stroke="none" 
	d="
M47.439560,70.978340 
	C48.592339,65.341171 53.073532,66.874023 56.837387,67.299942 
	C58.728714,67.513969 60.622070,68.539558 62.159943,70.431732 
	C60.967472,71.063766 59.790009,70.768539 58.543015,70.059013 
	C54.821037,67.941254 51.237541,68.701950 47.439560,70.978340 
z"/>
<path fill="#FBE3BD" opacity="1.000000" stroke="none" 
	d="
M98.431923,87.020096 
	C100.088806,82.601997 104.281105,80.962944 108.617035,79.009430 
	C106.113312,82.324806 102.915543,85.255844 98.431923,87.020096 
z"/>
<path fill="#FBE3BD" opacity="1.000000" stroke="none" 
	d="
M161.899200,65.788834 
	C158.271866,61.123627 158.271866,61.123627 165.670792,57.088226 
	C165.673813,60.333660 161.114838,61.544380 161.899200,65.788834 
z"/>
<path fill="#FBE3BD" opacity="1.000000" stroke="none" 
	d="
M91.175423,94.359032 
	C96.169464,95.252579 95.538300,90.510292 97.474991,87.904434 
	C98.111916,95.047867 96.288895,97.002396 91.175423,94.359032 
z"/>
<path fill="#FBE3BD" opacity="1.000000" stroke="none" 
	d="
M71.006042,75.462692 
	C74.405373,75.983246 76.909737,78.462555 79.988930,80.572708 
	C76.256279,80.771889 73.097382,79.300529 71.006042,75.462692 
z"/>
<path fill="#FBE3BD" opacity="1.000000" stroke="none" 
	d="
M85.021347,84.410645 
	C89.368576,85.125153 89.627129,88.698349 89.887711,92.636749 
	C86.928581,91.038078 87.405037,87.088531 85.021347,84.410645 
z"/>
<path fill="#FBE3BD" opacity="1.000000" stroke="none" 
	d="
M147.272110,97.328697 
	C148.684647,95.333107 150.883133,94.563622 153.454498,93.775879 
	C153.680038,98.228462 149.850311,96.661186 147.272110,97.328697 
z"/>
<path fill="#FBE3BD" opacity="1.000000" stroke="none" 
	d="
M158.406906,88.970078 
	C158.275986,86.861618 159.319809,85.182602 161.306488,83.720009 
	C161.979538,86.049797 161.080719,87.863029 158.406906,88.970078 
z"/>
<path fill="#FBE3BD" opacity="1.000000" stroke="none" 
	d="
M162.178589,81.857880 
	C162.050995,80.431129 162.288895,78.976257 162.793549,77.268272 
	C164.229767,78.763863 164.784775,80.446686 162.178589,81.857880 
z"/>
<path fill="#FBE3BD" opacity="1.000000" stroke="none" 
	d="
M64.014099,71.527412 
	C65.739807,70.960091 66.703751,72.282494 68.028931,73.552467 
	C66.384323,74.133171 64.823189,73.870415 64.014099,71.527412 
z"/>
<path fill="#FBE3BD" opacity="1.000000" stroke="none" 
	d="
M174.346130,49.954762 
	C174.065521,48.283978 175.239777,47.279987 176.679749,46.112160 
	C177.072693,47.775150 176.775909,49.356449 174.346130,49.954762 
z"/>
<path fill="#FBE3BD" opacity="1.000000" stroke="none" 
	d="
M109.315376,78.976997 
	C109.424072,77.883263 110.289536,77.332016 111.721863,77.108185 
	C111.862396,78.520386 110.949509,78.991768 109.315376,78.976997 
z"/>
<path fill="#FBE3BD" opacity="1.000000" stroke="none" 
	d="
M167.072937,56.829735 
	C167.007294,55.970673 167.452316,55.295609 168.685196,55.036232 
	C168.912338,55.996307 168.539871,56.746208 167.072937,56.829735 
z"/>
<path fill="#FBE3BD" opacity="1.000000" stroke="none" 
	d="
M81.030144,81.426964 
	C81.865990,81.106087 82.580475,81.430214 83.088562,82.578415 
	C82.248306,82.943718 81.460327,82.736008 81.030144,81.426964 
z"/>
<path fill="#FBE3BD" opacity="1.000000" stroke="none" 
	d="
M115.055405,75.826965 
	C114.998802,74.955002 115.463173,74.295380 116.713799,74.095184 
	C116.897377,75.058281 116.495506,75.780914 115.055405,75.826965 
z"/>
<path fill="#FBE3BD" opacity="1.000000" stroke="none" 
	d="
M163.208038,70.836662 
	C162.696304,70.511635 162.400787,70.023209 162.148987,69.236771 
	C163.084839,69.174957 164.045929,69.362213 163.208038,70.836662 
z"/>
<path fill="#FBE3BD" opacity="1.000000" stroke="none" 
	d="
M41.176601,97.571739 
	C41.321205,97.302345 41.597713,97.341408 42.001114,97.708992 
	C41.858326,97.921860 41.585159,97.869423 41.176601,97.571739 
z"/>
<path fill="#FBE3BD" opacity="1.000000" stroke="none" 
	d="
M144.159119,97.593155 
	C144.054779,97.513420 144.504486,97.331100 144.735901,97.402069 
	C144.967331,97.473045 144.645645,97.690933 144.645645,97.690933 
	C144.645645,97.690933 144.263443,97.672882 144.159119,97.593155 
z"/>
</svg>